<?xml version="1.0" encoding="UTF-8" standalone="no"?>
<!DOCTYPE svg PUBLIC "-//W3C//DTD SVG 1.1//EN"
 "http://www.w3.org/Graphics/SVG/1.1/DTD/svg11.dtd">
<!-- Generated by graphviz version 2.40.1 (20161225.0304)
 -->
<!-- Title: %3 Pages: 1 -->
<svg width="2370pt" height="836pt"
 viewBox="0.00 0.00 2370.01 836.00" xmlns="http://www.w3.org/2000/svg" xmlns:xlink="http://www.w3.org/1999/xlink">
<g id="graph0" class="graph" transform="scale(1 1) rotate(0) translate(4 832)">
<title>%3</title>
<polygon fill="#ffffff" stroke="transparent" points="-4,4 -4,-832 2366.0124,-832 2366.0124,4 -4,4"/>
<!-- [root] kubernetes_pod.nginx -->
<g id="node1" class="node">
<title>[root] kubernetes_pod.nginx</title>
<polygon fill="none" stroke="#000000" points="1650.4198,-540 1510.3573,-540 1510.3573,-504 1650.4198,-504 1650.4198,-540"/>
<text text-anchor="middle" x="1580.3885" y="-517.8" font-family="Times,serif" font-size="14.00" fill="#000000">kubernetes_pod.nginx</text>
</g>
<!-- [root] provider.kubernetes -->
<g id="node6" class="node">
<title>[root] provider.kubernetes</title>
<polygon fill="none" stroke="#000000" points="1580.3885,-468 1467.3343,-450 1580.3885,-432 1693.4428,-450 1580.3885,-468"/>
<text text-anchor="middle" x="1580.3885" y="-445.8" font-family="Times,serif" font-size="14.00" fill="#000000">provider.kubernetes</text>
</g>
<!-- [root] kubernetes_pod.nginx&#45;&gt;[root] provider.kubernetes -->
<g id="edge1" class="edge">
<title>[root] kubernetes_pod.nginx&#45;&gt;[root] provider.kubernetes</title>
<path fill="none" stroke="#000000" d="M1580.3885,-503.8314C1580.3885,-496.131 1580.3885,-486.9743 1580.3885,-478.4166"/>
<polygon fill="#000000" stroke="#000000" points="1583.8886,-478.4132 1580.3885,-468.4133 1576.8886,-478.4133 1583.8886,-478.4132"/>
</g>
<!-- [root] kubernetes_service.nginx -->
<g id="node2" class="node">
<title>[root] kubernetes_service.nginx</title>
<polygon fill="none" stroke="#000000" points="1659.5617,-612 1501.2154,-612 1501.2154,-576 1659.5617,-576 1659.5617,-612"/>
<text text-anchor="middle" x="1580.3885" y="-589.8" font-family="Times,serif" font-size="14.00" fill="#000000">kubernetes_service.nginx</text>
</g>
<!-- [root] kubernetes_service.nginx&#45;&gt;[root] kubernetes_pod.nginx -->
<g id="edge2" class="edge">
<title>[root] kubernetes_service.nginx&#45;&gt;[root] kubernetes_pod.nginx</title>
<path fill="none" stroke="#000000" d="M1580.3885,-575.8314C1580.3885,-568.131 1580.3885,-558.9743 1580.3885,-550.4166"/>
<polygon fill="#000000" stroke="#000000" points="1583.8886,-550.4132 1580.3885,-540.4133 1576.8886,-550.4133 1583.8886,-550.4132"/>
</g>
<!-- [root] module.k8s.azurerm_kubernetes_cluster.test -->
<g id="node3" class="node">
<title>[root] module.k8s.azurerm_kubernetes_cluster.test</title>
<polygon fill="none" stroke="#000000" points="1379.8205,-324 1114.9565,-324 1114.9565,-288 1379.8205,-288 1379.8205,-324"/>
<text text-anchor="middle" x="1247.3885" y="-301.8" font-family="Times,serif" font-size="14.00" fill="#000000">module.k8s.azurerm_kubernetes_cluster.test</text>
</g>
<!-- [root] module.k8s.azurerm_resource_group.test -->
<g id="node4" class="node">
<title>[root] module.k8s.azurerm_resource_group.test</title>
<polygon fill="none" stroke="#000000" points="1371.2032,-252 1123.5739,-252 1123.5739,-216 1371.2032,-216 1371.2032,-252"/>
<text text-anchor="middle" x="1247.3885" y="-229.8" font-family="Times,serif" font-size="14.00" fill="#000000">module.k8s.azurerm_resource_group.test</text>
</g>
<!-- [root] module.k8s.azurerm_kubernetes_cluster.test&#45;&gt;[root] module.k8s.azurerm_resource_group.test -->
<g id="edge12" class="edge">
<title>[root] module.k8s.azurerm_kubernetes_cluster.test&#45;&gt;[root] module.k8s.azurerm_resource_group.test</title>
<path fill="none" stroke="#000000" d="M1247.3885,-287.8314C1247.3885,-280.131 1247.3885,-270.9743 1247.3885,-262.4166"/>
<polygon fill="#000000" stroke="#000000" points="1250.8886,-262.4132 1247.3885,-252.4133 1243.8886,-262.4133 1250.8886,-262.4132"/>
</g>
<!-- [root] module.k8s.provider.azurerm -->
<g id="node5" class="node">
<title>[root] module.k8s.provider.azurerm</title>
<polygon fill="none" stroke="#000000" points="711.3885,-180 549.9712,-162 711.3885,-144 872.8059,-162 711.3885,-180"/>
<text text-anchor="middle" x="711.3885" y="-157.8" font-family="Times,serif" font-size="14.00" fill="#000000">module.k8s.provider.azurerm</text>
</g>
<!-- [root] module.k8s.azurerm_resource_group.test&#45;&gt;[root] module.k8s.provider.azurerm -->
<g id="edge13" class="edge">
<title>[root] module.k8s.azurerm_resource_group.test&#45;&gt;[root] module.k8s.provider.azurerm</title>
<path fill="none" stroke="#000000" d="M1123.4094,-217.3461C1022.4761,-203.7879 882.7723,-185.0217 794.7584,-173.1989"/>
<polygon fill="#000000" stroke="#000000" points="795.1948,-169.7262 784.8178,-171.8636 794.2628,-176.6639 795.1948,-169.7262"/>
</g>
<!-- [root] module.k8s.var.label -->
<g id="node17" class="node">
<title>[root] module.k8s.var.label</title>
<ellipse fill="none" stroke="#000000" cx="1127.3885" cy="-162" rx="105.7819" ry="18"/>
<text text-anchor="middle" x="1127.3885" y="-157.8" font-family="Times,serif" font-size="14.00" fill="#000000">[root] module.k8s.var.label</text>
</g>
<!-- [root] module.k8s.azurerm_resource_group.test&#45;&gt;[root] module.k8s.var.label -->
<g id="edge14" class="edge">
<title>[root] module.k8s.azurerm_resource_group.test&#45;&gt;[root] module.k8s.var.label</title>
<path fill="none" stroke="#000000" d="M1217.1075,-215.8314C1201.4072,-206.4112 1182.0749,-194.8118 1165.3811,-184.7955"/>
<polygon fill="#000000" stroke="#000000" points="1166.7938,-181.5615 1156.4181,-179.4177 1163.1923,-187.5639 1166.7938,-181.5615"/>
</g>
<!-- [root] module.k8s.var.location -->
<g id="node18" class="node">
<title>[root] module.k8s.var.location</title>
<ellipse fill="none" stroke="#000000" cx="1368.3885" cy="-162" rx="117.383" ry="18"/>
<text text-anchor="middle" x="1368.3885" y="-157.8" font-family="Times,serif" font-size="14.00" fill="#000000">[root] module.k8s.var.location</text>
</g>
<!-- [root] module.k8s.azurerm_resource_group.test&#45;&gt;[root] module.k8s.var.location -->
<g id="edge15" class="edge">
<title>[root] module.k8s.azurerm_resource_group.test&#45;&gt;[root] module.k8s.var.location</title>
<path fill="none" stroke="#000000" d="M1277.9219,-215.8314C1293.6349,-206.4815 1312.9557,-194.9848 1329.7021,-185.02"/>
<polygon fill="#000000" stroke="#000000" points="1331.8976,-187.7865 1338.7015,-179.665 1328.318,-181.7709 1331.8976,-187.7865"/>
</g>
<!-- [root] module.k8s.var.resource_group_name -->
<g id="node19" class="node">
<title>[root] module.k8s.var.resource_group_name</title>
<ellipse fill="none" stroke="#000000" cx="1670.3885" cy="-162" rx="167.0629" ry="18"/>
<text text-anchor="middle" x="1670.3885" y="-157.8" font-family="Times,serif" font-size="14.00" fill="#000000">[root] module.k8s.var.resource_group_name</text>
</g>
<!-- [root] module.k8s.azurerm_resource_group.test&#45;&gt;[root] module.k8s.var.resource_group_name -->
<g id="edge16" class="edge">
<title>[root] module.k8s.azurerm_resource_group.test&#45;&gt;[root] module.k8s.var.resource_group_name</title>
<path fill="none" stroke="#000000" d="M1353.3106,-215.9707C1419.9988,-204.6195 1505.5219,-190.0624 1570.9384,-178.9277"/>
<polygon fill="#000000" stroke="#000000" points="1571.5777,-182.3693 1580.8486,-177.2408 1570.403,-175.4686 1571.5777,-182.3693"/>
</g>
<!-- [root] module.k8s.var.client_id -->
<g id="node25" class="node">
<title>[root] module.k8s.var.client_id</title>
<ellipse fill="none" stroke="#000000" cx="970.3885" cy="-90" rx="119.7969" ry="18"/>
<text text-anchor="middle" x="970.3885" y="-85.8" font-family="Times,serif" font-size="14.00" fill="#000000">[root] module.k8s.var.client_id</text>
</g>
<!-- [root] module.k8s.provider.azurerm&#45;&gt;[root] module.k8s.var.client_id -->
<g id="edge24" class="edge">
<title>[root] module.k8s.provider.azurerm&#45;&gt;[root] module.k8s.var.client_id</title>
<path fill="none" stroke="#000000" d="M757.6925,-149.1278C798.224,-137.8604 857.6112,-121.3512 903.3391,-108.6392"/>
<polygon fill="#000000" stroke="#000000" points="904.4744,-111.9564 913.1716,-105.9059 902.5995,-105.2122 904.4744,-111.9564"/>
</g>
<!-- [root] module.k8s.var.client_secret -->
<g id="node26" class="node">
<title>[root] module.k8s.var.client_secret</title>
<ellipse fill="none" stroke="#000000" cx="133.3885" cy="-90" rx="133.2772" ry="18"/>
<text text-anchor="middle" x="133.3885" y="-85.8" font-family="Times,serif" font-size="14.00" fill="#000000">[root] module.k8s.var.client_secret</text>
</g>
<!-- [root] module.k8s.provider.azurerm&#45;&gt;[root] module.k8s.var.client_secret -->
<g id="edge25" class="edge">
<title>[root] module.k8s.provider.azurerm&#45;&gt;[root] module.k8s.var.client_secret</title>
<path fill="none" stroke="#000000" d="M634.7698,-152.5289C547.87,-141.7775 401.9286,-123.6932 276.3885,-108 264.9439,-106.5694 252.9846,-105.0703 241.067,-103.574"/>
<polygon fill="#000000" stroke="#000000" points="241.4365,-100.093 231.0782,-102.3192 240.564,-107.0384 241.4365,-100.093"/>
</g>
<!-- [root] module.k8s.var.subscription_id -->
<g id="node27" class="node">
<title>[root] module.k8s.var.subscription_id</title>
<ellipse fill="none" stroke="#000000" cx="428.3885" cy="-90" rx="143.4766" ry="18"/>
<text text-anchor="middle" x="428.3885" y="-85.8" font-family="Times,serif" font-size="14.00" fill="#000000">[root] module.k8s.var.subscription_id</text>
</g>
<!-- [root] module.k8s.provider.azurerm&#45;&gt;[root] module.k8s.var.subscription_id -->
<g id="edge26" class="edge">
<title>[root] module.k8s.provider.azurerm&#45;&gt;[root] module.k8s.var.subscription_id</title>
<path fill="none" stroke="#000000" d="M662.0937,-149.4586C617.8513,-138.2025 552.308,-121.5272 501.8822,-108.698"/>
<polygon fill="#000000" stroke="#000000" points="502.5637,-105.26 492.0095,-106.1862 500.8377,-112.0439 502.5637,-105.26"/>
</g>
<!-- [root] module.k8s.var.tenant_id -->
<g id="node28" class="node">
<title>[root] module.k8s.var.tenant_id</title>
<ellipse fill="none" stroke="#000000" cx="711.3885" cy="-90" rx="121.7263" ry="18"/>
<text text-anchor="middle" x="711.3885" y="-85.8" font-family="Times,serif" font-size="14.00" fill="#000000">[root] module.k8s.var.tenant_id</text>
</g>
<!-- [root] module.k8s.provider.azurerm&#45;&gt;[root] module.k8s.var.tenant_id -->
<g id="edge27" class="edge">
<title>[root] module.k8s.provider.azurerm&#45;&gt;[root] module.k8s.var.tenant_id</title>
<path fill="none" stroke="#000000" d="M711.3885,-143.8314C711.3885,-136.131 711.3885,-126.9743 711.3885,-118.4166"/>
<polygon fill="#000000" stroke="#000000" points="714.8886,-118.4132 711.3885,-108.4133 707.8886,-118.4133 714.8886,-118.4132"/>
</g>
<!-- [root] module.k8s.output.client_certificate -->
<g id="node20" class="node">
<title>[root] module.k8s.output.client_certificate</title>
<ellipse fill="none" stroke="#000000" cx="1540.3885" cy="-378" rx="159.3448" ry="18"/>
<text text-anchor="middle" x="1540.3885" y="-373.8" font-family="Times,serif" font-size="14.00" fill="#000000">[root] module.k8s.output.client_certificate</text>
</g>
<!-- [root] provider.kubernetes&#45;&gt;[root] module.k8s.output.client_certificate -->
<g id="edge37" class="edge">
<title>[root] provider.kubernetes&#45;&gt;[root] module.k8s.output.client_certificate</title>
<path fill="none" stroke="#000000" d="M1571.1112,-433.3008C1566.424,-424.8638 1560.6213,-414.4189 1555.3255,-404.8865"/>
<polygon fill="#000000" stroke="#000000" points="1558.3724,-403.164 1550.4564,-396.1222 1552.2533,-406.5635 1558.3724,-403.164"/>
</g>
<!-- [root] module.k8s.output.client_key -->
<g id="node21" class="node">
<title>[root] module.k8s.output.client_key</title>
<ellipse fill="none" stroke="#000000" cx="1855.3885" cy="-378" rx="137.1621" ry="18"/>
<text text-anchor="middle" x="1855.3885" y="-373.8" font-family="Times,serif" font-size="14.00" fill="#000000">[root] module.k8s.output.client_key</text>
</g>
<!-- [root] provider.kubernetes&#45;&gt;[root] module.k8s.output.client_key -->
<g id="edge38" class="edge">
<title>[root] provider.kubernetes&#45;&gt;[root] module.k8s.output.client_key</title>
<path fill="none" stroke="#000000" d="M1623.3573,-438.75C1666.2683,-427.5151 1732.9869,-410.047 1783.887,-396.7204"/>
<polygon fill="#000000" stroke="#000000" points="1785.057,-400.0321 1793.8444,-394.1134 1783.2839,-393.2604 1785.057,-400.0321"/>
</g>
<!-- [root] module.k8s.output.cluster_ca_certificate -->
<g id="node22" class="node">
<title>[root] module.k8s.output.cluster_ca_certificate</title>
<ellipse fill="none" stroke="#000000" cx="2186.3885" cy="-378" rx="175.7478" ry="18"/>
<text text-anchor="middle" x="2186.3885" y="-373.8" font-family="Times,serif" font-size="14.00" fill="#000000">[root] module.k8s.output.cluster_ca_certificate</text>
</g>
<!-- [root] provider.kubernetes&#45;&gt;[root] module.k8s.output.cluster_ca_certificate -->
<g id="edge39" class="edge">
<title>[root] provider.kubernetes&#45;&gt;[root] module.k8s.output.cluster_ca_certificate</title>
<path fill="none" stroke="#000000" d="M1645.2412,-442.2947C1744.2368,-430.5329 1934.8535,-407.8854 2061.3579,-392.8551"/>
<polygon fill="#000000" stroke="#000000" points="2061.9743,-396.3066 2071.4915,-391.6511 2061.1484,-389.3555 2061.9743,-396.3066"/>
</g>
<!-- [root] module.k8s.output.host -->
<g id="node23" class="node">
<title>[root] module.k8s.output.host</title>
<ellipse fill="none" stroke="#000000" cx="1247.3885" cy="-378" rx="115.4796" ry="18"/>
<text text-anchor="middle" x="1247.3885" y="-373.8" font-family="Times,serif" font-size="14.00" fill="#000000">[root] module.k8s.output.host</text>
</g>
<!-- [root] provider.kubernetes&#45;&gt;[root] module.k8s.output.host -->
<g id="edge40" class="edge">
<title>[root] provider.kubernetes&#45;&gt;[root] module.k8s.output.host</title>
<path fill="none" stroke="#000000" d="M1532.3231,-439.6075C1478.1266,-427.8893 1389.2188,-408.666 1325.1183,-394.8064"/>
<polygon fill="#000000" stroke="#000000" points="1325.5665,-391.3225 1315.0527,-392.6301 1324.0872,-398.1644 1325.5665,-391.3225"/>
</g>
<!-- [root] meta.count&#45;boundary (count boundary fixup) -->
<g id="node7" class="node">
<title>[root] meta.count&#45;boundary (count boundary fixup)</title>
<ellipse fill="none" stroke="#000000" cx="1066.3885" cy="-738" rx="191.6931" ry="18"/>
<text text-anchor="middle" x="1066.3885" y="-733.8" font-family="Times,serif" font-size="14.00" fill="#000000">[root] meta.count&#45;boundary (count boundary fixup)</text>
</g>
<!-- [root] module.k8s.output.id -->
<g id="node8" class="node">
<title>[root] module.k8s.output.id</title>
<ellipse fill="none" stroke="#000000" cx="1066.3885" cy="-594" rx="107.2528" ry="18"/>
<text text-anchor="middle" x="1066.3885" y="-589.8" font-family="Times,serif" font-size="14.00" fill="#000000">[root] module.k8s.output.id</text>
</g>
<!-- [root] meta.count&#45;boundary (count boundary fixup)&#45;&gt;[root] module.k8s.output.id -->
<g id="edge3" class="edge">
<title>[root] meta.count&#45;boundary (count boundary fixup)&#45;&gt;[root] module.k8s.output.id</title>
<path fill="none" stroke="#000000" d="M1066.3885,-719.7623C1066.3885,-695.201 1066.3885,-651.2474 1066.3885,-622.3541"/>
<polygon fill="#000000" stroke="#000000" points="1069.8886,-622.0896 1066.3885,-612.0896 1062.8886,-622.0897 1069.8886,-622.0896"/>
</g>
<!-- [root] module.k8s.output.kube_config -->
<g id="node9" class="node">
<title>[root] module.k8s.output.kube_config</title>
<ellipse fill="none" stroke="#000000" cx="1313.3885" cy="-522" rx="144.437" ry="18"/>
<text text-anchor="middle" x="1313.3885" y="-517.8" font-family="Times,serif" font-size="14.00" fill="#000000">[root] module.k8s.output.kube_config</text>
</g>
<!-- [root] meta.count&#45;boundary (count boundary fixup)&#45;&gt;[root] module.k8s.output.kube_config -->
<g id="edge4" class="edge">
<title>[root] meta.count&#45;boundary (count boundary fixup)&#45;&gt;[root] module.k8s.output.kube_config</title>
<path fill="none" stroke="#000000" d="M1208.09,-725.8166C1263.6823,-717.8372 1318.2959,-704.8649 1335.3885,-684 1366.7087,-645.7677 1345.243,-584.595 1328.3097,-549.3782"/>
<polygon fill="#000000" stroke="#000000" points="1331.3082,-547.5491 1323.7015,-540.1742 1325.0489,-550.683 1331.3082,-547.5491"/>
</g>
<!-- [root] output.client_certificate -->
<g id="node10" class="node">
<title>[root] output.client_certificate</title>
<ellipse fill="none" stroke="#000000" cx="1210.3885" cy="-666" rx="116.3794" ry="18"/>
<text text-anchor="middle" x="1210.3885" y="-661.8" font-family="Times,serif" font-size="14.00" fill="#000000">[root] output.client_certificate</text>
</g>
<!-- [root] meta.count&#45;boundary (count boundary fixup)&#45;&gt;[root] output.client_certificate -->
<g id="edge5" class="edge">
<title>[root] meta.count&#45;boundary (count boundary fixup)&#45;&gt;[root] output.client_certificate</title>
<path fill="none" stroke="#000000" d="M1101.9841,-720.2022C1121.4847,-710.4519 1145.8203,-698.2841 1166.4907,-687.9489"/>
<polygon fill="#000000" stroke="#000000" points="1168.3204,-690.9473 1175.6994,-683.3446 1165.1898,-684.6863 1168.3204,-690.9473"/>
</g>
<!-- [root] output.client_key -->
<g id="node11" class="node">
<title>[root] output.client_key</title>
<ellipse fill="none" stroke="#000000" cx="1645.3885" cy="-666" rx="94.1964" ry="18"/>
<text text-anchor="middle" x="1645.3885" y="-661.8" font-family="Times,serif" font-size="14.00" fill="#000000">[root] output.client_key</text>
</g>
<!-- [root] meta.count&#45;boundary (count boundary fixup)&#45;&gt;[root] output.client_key -->
<g id="edge6" class="edge">
<title>[root] meta.count&#45;boundary (count boundary fixup)&#45;&gt;[root] output.client_key</title>
<path fill="none" stroke="#000000" d="M1199.2285,-724.9881C1294.6227,-715.1348 1426.1624,-700.5069 1541.3885,-684 1549.6672,-682.814 1558.2996,-681.4788 1566.8965,-680.0852"/>
<polygon fill="#000000" stroke="#000000" points="1567.6514,-683.5081 1576.9489,-678.428 1566.5127,-676.6013 1567.6514,-683.5081"/>
</g>
<!-- [root] output.cluster_ca_certificate -->
<g id="node12" class="node">
<title>[root] output.cluster_ca_certificate</title>
<ellipse fill="none" stroke="#000000" cx="344.3885" cy="-666" rx="132.2822" ry="18"/>
<text text-anchor="middle" x="344.3885" y="-661.8" font-family="Times,serif" font-size="14.00" fill="#000000">[root] output.cluster_ca_certificate</text>
</g>
<!-- [root] meta.count&#45;boundary (count boundary fixup)&#45;&gt;[root] output.cluster_ca_certificate -->
<g id="edge7" class="edge">
<title>[root] meta.count&#45;boundary (count boundary fixup)&#45;&gt;[root] output.cluster_ca_certificate</title>
<path fill="none" stroke="#000000" d="M922.9901,-726.0507C805.315,-715.9135 634.4134,-700.4328 485.3885,-684 473.7947,-682.7216 461.6755,-681.3016 449.6202,-679.836"/>
<polygon fill="#000000" stroke="#000000" points="449.8737,-676.3409 439.5217,-678.5962 449.0206,-683.2887 449.8737,-676.3409"/>
</g>
<!-- [root] output.host -->
<g id="node13" class="node">
<title>[root] output.host</title>
<ellipse fill="none" stroke="#000000" cx="566.3885" cy="-666" rx="72.0135" ry="18"/>
<text text-anchor="middle" x="566.3885" y="-661.8" font-family="Times,serif" font-size="14.00" fill="#000000">[root] output.host</text>
</g>
<!-- [root] meta.count&#45;boundary (count boundary fixup)&#45;&gt;[root] output.host -->
<g id="edge8" class="edge">
<title>[root] meta.count&#45;boundary (count boundary fixup)&#45;&gt;[root] output.host</title>
<path fill="none" stroke="#000000" d="M938.4959,-724.5577C855.2819,-715.0636 744.5574,-701.0221 647.3885,-684 641.3358,-682.9397 635.0513,-681.733 628.7803,-680.4581"/>
<polygon fill="#000000" stroke="#000000" points="629.4765,-677.028 618.9721,-678.4098 628.0454,-683.8802 629.4765,-677.028"/>
</g>
<!-- [root] output.lb_ip -->
<g id="node14" class="node">
<title>[root] output.lb_ip</title>
<ellipse fill="none" stroke="#000000" cx="1457.3885" cy="-666" rx="75.388" ry="18"/>
<text text-anchor="middle" x="1457.3885" y="-661.8" font-family="Times,serif" font-size="14.00" fill="#000000">[root] output.lb_ip</text>
</g>
<!-- [root] meta.count&#45;boundary (count boundary fixup)&#45;&gt;[root] output.lb_ip -->
<g id="edge9" class="edge">
<title>[root] meta.count&#45;boundary (count boundary fixup)&#45;&gt;[root] output.lb_ip</title>
<path fill="none" stroke="#000000" d="M1158.008,-722.1726C1217.9308,-711.684 1297.8857,-697.4309 1368.3885,-684 1375.4152,-682.6614 1382.747,-681.2318 1390.055,-679.7856"/>
<polygon fill="#000000" stroke="#000000" points="1390.8511,-683.1959 1399.9749,-677.8101 1389.4838,-676.3307 1390.8511,-683.1959"/>
</g>
<!-- [root] output.password -->
<g id="node15" class="node">
<title>[root] output.password</title>
<ellipse fill="none" stroke="#000000" cx="747.3885" cy="-666" rx="90.8395" ry="18"/>
<text text-anchor="middle" x="747.3885" y="-661.8" font-family="Times,serif" font-size="14.00" fill="#000000">[root] output.password</text>
</g>
<!-- [root] meta.count&#45;boundary (count boundary fixup)&#45;&gt;[root] output.password -->
<g id="edge10" class="edge">
<title>[root] meta.count&#45;boundary (count boundary fixup)&#45;&gt;[root] output.password</title>
<path fill="none" stroke="#000000" d="M992.4017,-721.3008C939.5776,-709.3781 868.987,-693.4454 817.1464,-681.7447"/>
<polygon fill="#000000" stroke="#000000" points="817.8918,-678.325 807.3666,-679.5374 816.3506,-685.1532 817.8918,-678.325"/>
</g>
<!-- [root] output.username -->
<g id="node16" class="node">
<title>[root] output.username</title>
<ellipse fill="none" stroke="#000000" cx="947.3885" cy="-666" rx="91.298" ry="18"/>
<text text-anchor="middle" x="947.3885" y="-661.8" font-family="Times,serif" font-size="14.00" fill="#000000">[root] output.username</text>
</g>
<!-- [root] meta.count&#45;boundary (count boundary fixup)&#45;&gt;[root] output.username -->
<g id="edge11" class="edge">
<title>[root] meta.count&#45;boundary (count boundary fixup)&#45;&gt;[root] output.username</title>
<path fill="none" stroke="#000000" d="M1036.9728,-720.2022C1021.2932,-710.7154 1001.8311,-698.94 985.0568,-688.7909"/>
<polygon fill="#000000" stroke="#000000" points="986.423,-685.5267 976.0553,-683.3446 982.7993,-691.5158 986.423,-685.5267"/>
</g>
<!-- [root] module.k8s.output.id&#45;&gt;[root] module.k8s.azurerm_kubernetes_cluster.test -->
<g id="edge21" class="edge">
<title>[root] module.k8s.output.id&#45;&gt;[root] module.k8s.azurerm_kubernetes_cluster.test</title>
<path fill="none" stroke="#000000" d="M1064.6426,-575.753C1061.5676,-532.86 1059.9181,-424.396 1113.3885,-360 1124.8799,-346.1606 1140.4496,-335.8372 1156.9107,-328.1461"/>
<polygon fill="#000000" stroke="#000000" points="1158.3523,-331.3359 1166.1271,-324.1384 1155.5609,-324.9165 1158.3523,-331.3359"/>
</g>
<!-- [root] module.k8s.output.kube_config&#45;&gt;[root] module.k8s.azurerm_kubernetes_cluster.test -->
<g id="edge22" class="edge">
<title>[root] module.k8s.output.kube_config&#45;&gt;[root] module.k8s.azurerm_kubernetes_cluster.test</title>
<path fill="none" stroke="#000000" d="M1264.1779,-504.9674C1218.4072,-486.1828 1152.9641,-451.1012 1123.3885,-396 1115.8217,-381.9024 1114.6196,-373.3831 1123.3885,-360 1132.3403,-346.3379 1145.5829,-336.1133 1160.1234,-328.467"/>
<polygon fill="#000000" stroke="#000000" points="1161.8319,-331.5289 1169.318,-324.0316 1158.7905,-325.2241 1161.8319,-331.5289"/>
</g>
<!-- [root] output.lb_ip&#45;&gt;[root] kubernetes_service.nginx -->
<g id="edge35" class="edge">
<title>[root] output.lb_ip&#45;&gt;[root] kubernetes_service.nginx</title>
<path fill="none" stroke="#000000" d="M1485.9164,-649.3008C1502.1125,-639.8201 1522.6402,-627.8039 1540.4201,-617.3962"/>
<polygon fill="#000000" stroke="#000000" points="1542.5678,-620.1945 1549.4299,-612.1222 1539.0316,-614.1534 1542.5678,-620.1945"/>
</g>
<!-- [root] var.label -->
<g id="node31" class="node">
<title>[root] var.label</title>
<ellipse fill="none" stroke="#000000" cx="1170.3885" cy="-90" rx="62.8166" ry="18"/>
<text text-anchor="middle" x="1170.3885" y="-85.8" font-family="Times,serif" font-size="14.00" fill="#000000">[root] var.label</text>
</g>
<!-- [root] module.k8s.var.label&#45;&gt;[root] var.label -->
<g id="edge30" class="edge">
<title>[root] module.k8s.var.label&#45;&gt;[root] var.label</title>
<path fill="none" stroke="#000000" d="M1138.2393,-143.8314C1143.1654,-135.5829 1149.0895,-125.6635 1154.5029,-116.5992"/>
<polygon fill="#000000" stroke="#000000" points="1157.5677,-118.2935 1159.6903,-107.9134 1151.5579,-114.7042 1157.5677,-118.2935"/>
</g>
<!-- [root] var.location -->
<g id="node32" class="node">
<title>[root] var.location</title>
<ellipse fill="none" stroke="#000000" cx="1368.3885" cy="-90" rx="73.9171" ry="18"/>
<text text-anchor="middle" x="1368.3885" y="-85.8" font-family="Times,serif" font-size="14.00" fill="#000000">[root] var.location</text>
</g>
<!-- [root] module.k8s.var.location&#45;&gt;[root] var.location -->
<g id="edge31" class="edge">
<title>[root] module.k8s.var.location&#45;&gt;[root] var.location</title>
<path fill="none" stroke="#000000" d="M1368.3885,-143.8314C1368.3885,-136.131 1368.3885,-126.9743 1368.3885,-118.4166"/>
<polygon fill="#000000" stroke="#000000" points="1371.8886,-118.4132 1368.3885,-108.4133 1364.8886,-118.4133 1371.8886,-118.4132"/>
</g>
<!-- [root] var.resource_group_name -->
<g id="node33" class="node">
<title>[root] var.resource_group_name</title>
<ellipse fill="none" stroke="#000000" cx="1670.3885" cy="-90" rx="124.097" ry="18"/>
<text text-anchor="middle" x="1670.3885" y="-85.8" font-family="Times,serif" font-size="14.00" fill="#000000">[root] var.resource_group_name</text>
</g>
<!-- [root] module.k8s.var.resource_group_name&#45;&gt;[root] var.resource_group_name -->
<g id="edge32" class="edge">
<title>[root] module.k8s.var.resource_group_name&#45;&gt;[root] var.resource_group_name</title>
<path fill="none" stroke="#000000" d="M1670.3885,-143.8314C1670.3885,-136.131 1670.3885,-126.9743 1670.3885,-118.4166"/>
<polygon fill="#000000" stroke="#000000" points="1673.8886,-118.4132 1670.3885,-108.4133 1666.8886,-118.4133 1673.8886,-118.4132"/>
</g>
<!-- [root] module.k8s.output.client_certificate&#45;&gt;[root] module.k8s.azurerm_kubernetes_cluster.test -->
<g id="edge17" class="edge">
<title>[root] module.k8s.output.client_certificate&#45;&gt;[root] module.k8s.azurerm_kubernetes_cluster.test</title>
<path fill="none" stroke="#000000" d="M1473.5357,-361.572C1431.1291,-351.1513 1375.9303,-337.5871 1330.6834,-326.4684"/>
<polygon fill="#000000" stroke="#000000" points="1331.4395,-323.0501 1320.8931,-324.0626 1329.769,-329.8479 1331.4395,-323.0501"/>
</g>
<!-- [root] module.k8s.output.client_key&#45;&gt;[root] module.k8s.azurerm_kubernetes_cluster.test -->
<g id="edge18" class="edge">
<title>[root] module.k8s.output.client_key&#45;&gt;[root] module.k8s.azurerm_kubernetes_cluster.test</title>
<path fill="none" stroke="#000000" d="M1754.9719,-365.633C1739.378,-363.733 1723.4506,-361.8043 1708.3885,-360 1601.7716,-347.2281 1481.2418,-333.1213 1390.1706,-322.5298"/>
<polygon fill="#000000" stroke="#000000" points="1390.3924,-319.0321 1380.0551,-321.3537 1389.5839,-325.9852 1390.3924,-319.0321"/>
</g>
<!-- [root] module.k8s.output.cluster_ca_certificate&#45;&gt;[root] module.k8s.azurerm_kubernetes_cluster.test -->
<g id="edge19" class="edge">
<title>[root] module.k8s.output.cluster_ca_certificate&#45;&gt;[root] module.k8s.azurerm_kubernetes_cluster.test</title>
<path fill="none" stroke="#000000" d="M2061.0399,-365.3678C2041.0936,-363.4835 2020.6817,-361.6292 2001.3885,-360 1788.7025,-342.04 1541.9337,-325.1051 1390.2308,-315.1416"/>
<polygon fill="#000000" stroke="#000000" points="1390.1335,-311.6278 1379.9259,-314.466 1389.6754,-318.6128 1390.1335,-311.6278"/>
</g>
<!-- [root] module.k8s.output.host&#45;&gt;[root] module.k8s.azurerm_kubernetes_cluster.test -->
<g id="edge20" class="edge">
<title>[root] module.k8s.output.host&#45;&gt;[root] module.k8s.azurerm_kubernetes_cluster.test</title>
<path fill="none" stroke="#000000" d="M1247.3885,-359.8314C1247.3885,-352.131 1247.3885,-342.9743 1247.3885,-334.4166"/>
<polygon fill="#000000" stroke="#000000" points="1250.8886,-334.4132 1247.3885,-324.4133 1243.8886,-334.4133 1250.8886,-334.4132"/>
</g>
<!-- [root] module.k8s.provider.azurerm (close) -->
<g id="node24" class="node">
<title>[root] module.k8s.provider.azurerm (close)</title>
<ellipse fill="none" stroke="#000000" cx="530.3885" cy="-450" rx="162.7183" ry="18"/>
<text text-anchor="middle" x="530.3885" y="-445.8" font-family="Times,serif" font-size="14.00" fill="#000000">[root] module.k8s.provider.azurerm (close)</text>
</g>
<!-- [root] module.k8s.provider.azurerm (close)&#45;&gt;[root] module.k8s.azurerm_kubernetes_cluster.test -->
<g id="edge23" class="edge">
<title>[root] module.k8s.provider.azurerm (close)&#45;&gt;[root] module.k8s.azurerm_kubernetes_cluster.test</title>
<path fill="none" stroke="#000000" d="M609.1711,-434.1776C740.3498,-407.832 1003.3233,-355.0173 1147.3809,-326.0852"/>
<polygon fill="#000000" stroke="#000000" points="1148.429,-329.4447 1157.5441,-324.0441 1147.0506,-322.5817 1148.429,-329.4447"/>
</g>
<!-- [root] var.client_id -->
<g id="node29" class="node">
<title>[root] var.client_id</title>
<ellipse fill="none" stroke="#000000" cx="970.3885" cy="-18" rx="76.3312" ry="18"/>
<text text-anchor="middle" x="970.3885" y="-13.8" font-family="Times,serif" font-size="14.00" fill="#000000">[root] var.client_id</text>
</g>
<!-- [root] module.k8s.var.client_id&#45;&gt;[root] var.client_id -->
<g id="edge28" class="edge">
<title>[root] module.k8s.var.client_id&#45;&gt;[root] var.client_id</title>
<path fill="none" stroke="#000000" d="M970.3885,-71.8314C970.3885,-64.131 970.3885,-54.9743 970.3885,-46.4166"/>
<polygon fill="#000000" stroke="#000000" points="973.8886,-46.4132 970.3885,-36.4133 966.8886,-46.4133 973.8886,-46.4132"/>
</g>
<!-- [root] var.client_secret -->
<g id="node30" class="node">
<title>[root] var.client_secret</title>
<ellipse fill="none" stroke="#000000" cx="133.3885" cy="-18" rx="90.3117" ry="18"/>
<text text-anchor="middle" x="133.3885" y="-13.8" font-family="Times,serif" font-size="14.00" fill="#000000">[root] var.client_secret</text>
</g>
<!-- [root] module.k8s.var.client_secret&#45;&gt;[root] var.client_secret -->
<g id="edge29" class="edge">
<title>[root] module.k8s.var.client_secret&#45;&gt;[root] var.client_secret</title>
<path fill="none" stroke="#000000" d="M133.3885,-71.8314C133.3885,-64.131 133.3885,-54.9743 133.3885,-46.4166"/>
<polygon fill="#000000" stroke="#000000" points="136.8886,-46.4132 133.3885,-36.4133 129.8886,-46.4133 136.8886,-46.4132"/>
</g>
<!-- [root] var.subscription_id -->
<g id="node34" class="node">
<title>[root] var.subscription_id</title>
<ellipse fill="none" stroke="#000000" cx="428.3885" cy="-18" rx="100.0106" ry="18"/>
<text text-anchor="middle" x="428.3885" y="-13.8" font-family="Times,serif" font-size="14.00" fill="#000000">[root] var.subscription_id</text>
</g>
<!-- [root] module.k8s.var.subscription_id&#45;&gt;[root] var.subscription_id -->
<g id="edge33" class="edge">
<title>[root] module.k8s.var.subscription_id&#45;&gt;[root] var.subscription_id</title>
<path fill="none" stroke="#000000" d="M428.3885,-71.8314C428.3885,-64.131 428.3885,-54.9743 428.3885,-46.4166"/>
<polygon fill="#000000" stroke="#000000" points="431.8886,-46.4132 428.3885,-36.4133 424.8886,-46.4133 431.8886,-46.4132"/>
</g>
<!-- [root] var.tenant_id -->
<g id="node35" class="node">
<title>[root] var.tenant_id</title>
<ellipse fill="none" stroke="#000000" cx="711.3885" cy="-18" rx="78.2607" ry="18"/>
<text text-anchor="middle" x="711.3885" y="-13.8" font-family="Times,serif" font-size="14.00" fill="#000000">[root] var.tenant_id</text>
</g>
<!-- [root] module.k8s.var.tenant_id&#45;&gt;[root] var.tenant_id -->
<g id="edge34" class="edge">
<title>[root] module.k8s.var.tenant_id&#45;&gt;[root] var.tenant_id</title>
<path fill="none" stroke="#000000" d="M711.3885,-71.8314C711.3885,-64.131 711.3885,-54.9743 711.3885,-46.4166"/>
<polygon fill="#000000" stroke="#000000" points="714.8886,-46.4132 711.3885,-36.4133 707.8886,-46.4133 714.8886,-46.4132"/>
</g>
<!-- [root] provider.kubernetes (close) -->
<g id="node36" class="node">
<title>[root] provider.kubernetes (close)</title>
<ellipse fill="none" stroke="#000000" cx="1585.3885" cy="-738" rx="128.9331" ry="18"/>
<text text-anchor="middle" x="1585.3885" y="-733.8" font-family="Times,serif" font-size="14.00" fill="#000000">[root] provider.kubernetes (close)</text>
</g>
<!-- [root] provider.kubernetes (close)&#45;&gt;[root] kubernetes_service.nginx -->
<g id="edge36" class="edge">
<title>[root] provider.kubernetes (close)&#45;&gt;[root] kubernetes_service.nginx</title>
<path fill="none" stroke="#000000" d="M1664.3766,-723.7614C1718.6763,-710.2933 1776.3325,-686.334 1748.3885,-648 1738.2024,-634.0264 1704.3322,-621.8763 1669.6463,-612.6586"/>
<polygon fill="#000000" stroke="#000000" points="1670.4175,-609.243 1659.8605,-610.1374 1668.6711,-616.0217 1670.4175,-609.243"/>
</g>
<!-- [root] root -->
<g id="node37" class="node">
<title>[root] root</title>
<ellipse fill="none" stroke="#000000" cx="1066.3885" cy="-810" rx="46.8976" ry="18"/>
<text text-anchor="middle" x="1066.3885" y="-805.8" font-family="Times,serif" font-size="14.00" fill="#000000">[root] root</text>
</g>
<!-- [root] root&#45;&gt;[root] meta.count&#45;boundary (count boundary fixup) -->
<g id="edge41" class="edge">
<title>[root] root&#45;&gt;[root] meta.count&#45;boundary (count boundary fixup)</title>
<path fill="none" stroke="#000000" d="M1066.3885,-791.8314C1066.3885,-784.131 1066.3885,-774.9743 1066.3885,-766.4166"/>
<polygon fill="#000000" stroke="#000000" points="1069.8886,-766.4132 1066.3885,-756.4133 1062.8886,-766.4133 1069.8886,-766.4132"/>
</g>
<!-- [root] root&#45;&gt;[root] module.k8s.provider.azurerm (close) -->
<g id="edge42" class="edge">
<title>[root] root&#45;&gt;[root] module.k8s.provider.azurerm (close)</title>
<path fill="none" stroke="#000000" d="M1019.9011,-807.3763C837.9904,-796.5011 184.3885,-751.4793 184.3885,-666 184.3885,-666 184.3885,-666 184.3885,-594 184.3885,-537.9813 340.9334,-492.1716 443.4271,-468.1822"/>
<polygon fill="#000000" stroke="#000000" points="444.2157,-471.5922 453.17,-465.9291 442.6386,-464.7722 444.2157,-471.5922"/>
</g>
<!-- [root] root&#45;&gt;[root] provider.kubernetes (close) -->
<g id="edge43" class="edge">
<title>[root] root&#45;&gt;[root] provider.kubernetes (close)</title>
<path fill="none" stroke="#000000" d="M1110.6382,-803.8613C1192.7318,-792.4726 1370.5451,-767.8049 1483.7379,-752.1018"/>
<polygon fill="#000000" stroke="#000000" points="1484.3816,-755.5461 1493.8058,-750.7051 1483.4196,-748.6125 1484.3816,-755.5461"/>
</g>
</g>
</svg>
